<svg width="38" height="38" viewBox="0 0 38 38" fill="none" xmlns="http://www.w3.org/2000/svg">
<rect width="38" height="38" rx="19" fill="#FF7D44"/>
<path d="M13.62 17.79C15.06 20.62 17.38 22.94 20.21 24.38L22.41 22.18C22.69 21.9 23.08 21.82 23.43 21.93C24.55 22.3 25.75 22.5 27 22.5C27.2652 22.5 27.5196 22.6054 27.7071 22.7929C27.8946 22.9804 28 23.2348 28 23.5V27C28 27.2652 27.8946 27.5196 27.7071 27.7071C27.5196 27.8946 27.2652 28 27 28C22.4913 28 18.1673 26.2089 14.9792 23.0208C11.7911 19.8327 10 15.5087 10 11C10 10.7348 10.1054 10.4804 10.2929 10.2929C10.4804 10.1054 10.7348 10 11 10H14.5C14.7652 10 15.0196 10.1054 15.2071 10.2929C15.3946 10.4804 15.5 10.7348 15.5 11C15.5 12.25 15.7 13.45 16.07 14.57C16.18 14.92 16.1 15.31 15.82 15.59L13.62 17.79Z" fill="white"/>
</svg>
