<svg width="25" height="24" viewBox="0 0 25 24" fill="none" xmlns="http://www.w3.org/2000/svg">
<g clip-path="url(#clip0_346_6683)">
<path fill-rule="evenodd" clip-rule="evenodd" d="M12.9625 2C17.9331 2 21.9625 6.02944 21.9625 11C21.9625 14.0738 20.2866 16.5892 18.5209 18.3945C17.5522 19.3849 16.5222 20.1973 15.6442 20.8113L15.2189 21.1017C15.1504 21.1473 15.0833 21.1915 15.0176 21.2343L14.6414 21.474L14.3054 21.6791L13.8896 21.921C13.3104 22.2481 12.6146 22.2481 12.0354 21.921L11.6196 21.6791L11.1002 21.3584C11.0374 21.3184 10.9731 21.2771 10.9074 21.2343L10.497 20.9607C9.57494 20.3315 8.45356 19.4674 7.40412 18.3945C5.6384 16.5892 3.9625 14.0738 3.9625 11C3.9625 6.02944 7.99194 2 12.9625 2ZM12.9625 4C9.09651 4 5.9625 7.13401 5.9625 11C5.9625 13.3224 7.23452 15.3608 8.83391 16.996C9.56937 17.7479 10.35 18.3895 11.0554 18.9063L11.5132 19.2322C11.6612 19.3346 11.8041 19.4307 11.9407 19.5203L12.3301 19.7694L12.6733 19.9788L12.9625 20.1475L13.417 19.8792L13.7843 19.6498C13.9792 19.5252 14.1898 19.3858 14.4118 19.2322L14.8696 18.9063C15.575 18.3895 16.3557 17.7479 17.0911 16.996C18.6905 15.3608 19.9625 13.3224 19.9625 11C19.9625 7.13401 16.8285 4 12.9625 4ZM12.9625 7C15.1716 7 16.9625 8.79086 16.9625 11C16.9625 13.2091 15.1716 15 12.9625 15C10.7534 15 8.9625 13.2091 8.9625 11C8.9625 8.79086 10.7534 7 12.9625 7ZM12.9625 9C11.8579 9 10.9625 9.89543 10.9625 11C10.9625 12.1046 11.8579 13 12.9625 13C14.0671 13 14.9625 12.1046 14.9625 11C14.9625 9.89543 14.0671 9 12.9625 9Z" fill="#182F43" fill-opacity="0.5"/>
</g>
<defs>
<clipPath id="clip0_346_6683">
<rect width="24" height="24" fill="white" transform="translate(0.962502)"/>
</clipPath>
</defs>
</svg>
