<svg width="246" height="44" viewBox="0 0 246 44" fill="none" xmlns="http://www.w3.org/2000/svg">
<path d="M36.351 8.87615L35.5902 13.3142L35.544 13.5848H6.35486C6.35486 12.2851 6.78037 11.1079 7.47182 10.2545C8.16097 9.40345 9.11374 8.87384 10.1683 8.87384H36.3487L36.351 8.87615Z" fill="#E14D2A"/>
<path d="M34.8274 17.7546L34.7812 18.0252L34.0203 22.4656H12.717C12.717 21.1659 13.1426 19.9887 13.834 19.1353C14.5231 18.2842 15.4759 17.7546 16.5304 17.7546H34.8251H34.8274Z" fill="#E14D2A"/>
<path d="M33.2704 26.6309L32.461 31.3395H19.0459C19.0459 30.0398 19.4506 28.8626 20.105 28.0092C20.7595 27.1558 21.6614 26.6285 22.6604 26.6285H33.2704V26.6309Z" fill="#E14D2A"/>
<path d="M37.845 0L37.0356 4.70867H0C0 3.40893 0.520325 2.23176 1.3621 1.37837C2.20387 0.527297 3.3694 0 4.65287 0H37.845Z" fill="#E14D2A"/>
<path d="M65.545 13.3143L58.7715 4.70867L55.0622 0H41.2955L40.4861 4.70867L39.0084 13.3143L38.199 18.0229L36.7213 26.6285L35.9119 31.3372H67.7304L68.5398 26.6285L70.0175 18.0229L70.6187 14.5261C70.7274 13.8924 70.2395 13.3143 69.5966 13.3143H65.5473H65.545ZM45.2639 4.70867H52.7774L59.5508 13.3143H43.7861L45.2639 4.70867ZM63.7597 26.6285H41.499L42.9767 18.0229H65.2397L63.7597 26.6285Z" fill="white"/>
<path d="M84.1244 40.3005H82.7266L87.3161 31.5733H88.8374L90.5292 40.3005H89.1315L87.8573 33.1585H87.7891L84.1244 40.3005ZM84.9255 36.8829H89.4596L89.2721 37.9909H84.738L84.9255 36.8829ZM96.2852 37.586L96.9244 33.7551H98.2028L97.1119 40.3005H95.8591L96.0508 39.167H95.9827C95.7781 39.5164 95.4883 39.8076 95.1133 40.0406C94.7412 40.2707 94.3094 40.3858 93.8179 40.3858C93.3974 40.3858 93.0409 40.2934 92.7483 40.1088C92.4585 39.9213 92.2525 39.6443 92.1304 39.2778C92.0082 38.9113 91.9912 38.4582 92.0793 37.9184L92.7781 33.7551H94.0523L93.3832 37.765C93.3122 38.211 93.379 38.5662 93.5835 38.8304C93.7881 39.0946 94.0864 39.2267 94.4784 39.2267C94.717 39.2267 94.9642 39.167 95.2199 39.0477C95.4756 38.9284 95.7014 38.748 95.8974 38.5065C96.0963 38.265 96.2256 37.9582 96.2852 37.586ZM102.97 33.7551L102.804 34.7778H99.2288L99.395 33.7551H102.97ZM100.609 32.1869H101.884L100.852 38.3787C100.813 38.6258 100.82 38.8119 100.874 38.9369C100.928 39.0591 101.01 39.1429 101.121 39.1883C101.234 39.2309 101.361 39.2522 101.5 39.2522C101.602 39.2522 101.692 39.2451 101.769 39.2309C101.845 39.2167 101.906 39.2054 101.952 39.1968L102.02 40.2494C101.935 40.2778 101.82 40.3062 101.675 40.3346C101.533 40.3659 101.359 40.3829 101.155 40.3858C100.82 40.3914 100.517 40.3318 100.247 40.2068C99.9773 40.0789 99.7756 39.8858 99.6421 39.6272C99.5086 39.3659 99.4759 39.0378 99.5441 38.6429L100.609 32.1869ZM106.005 40.4326C105.383 40.4326 104.863 40.2906 104.446 40.0065C104.028 39.7196 103.734 39.319 103.564 38.8048C103.396 38.2878 103.368 37.6869 103.478 37.0022C103.586 36.3318 103.804 35.7466 104.13 35.2466C104.46 34.7466 104.872 34.3588 105.366 34.0832C105.863 33.8076 106.416 33.6699 107.024 33.6699C107.646 33.6699 108.164 33.8133 108.579 34.1003C108.997 34.3872 109.291 34.7892 109.461 35.3062C109.632 35.8233 109.662 36.4255 109.551 37.113C109.443 37.7778 109.223 38.3602 108.89 38.8602C108.561 39.3574 108.149 39.7437 107.655 40.0193C107.16 40.2949 106.611 40.4326 106.005 40.4326ZM106.078 39.363C106.487 39.363 106.843 39.2551 107.147 39.0392C107.454 38.8233 107.704 38.5363 107.897 38.1784C108.091 37.8204 108.223 37.4284 108.294 37.0022C108.359 36.5903 108.358 36.2139 108.289 35.873C108.224 35.5292 108.082 35.2537 107.863 35.0463C107.645 34.8389 107.341 34.7352 106.951 34.7352C106.542 34.7352 106.183 34.8446 105.873 35.0633C105.566 35.2792 105.316 35.5676 105.123 35.9284C104.933 36.2892 104.804 36.6826 104.736 37.1088C104.67 37.5179 104.67 37.8943 104.736 38.238C104.801 38.5789 104.943 38.8517 105.162 39.0562C105.38 39.2608 105.686 39.363 106.078 39.363ZM119.544 33.917C119.547 33.488 119.407 33.1599 119.126 32.9326C118.848 32.7054 118.459 32.5917 117.959 32.5917C117.601 32.5917 117.281 32.6485 117 32.7622C116.721 32.873 116.494 33.0264 116.318 33.2224C116.145 33.4156 116.038 33.6358 115.998 33.8829C115.961 34.0903 115.98 34.2693 116.054 34.4199C116.13 34.5704 116.24 34.6968 116.382 34.7991C116.527 34.8985 116.686 34.9824 116.859 35.0505C117.032 35.1159 117.2 35.1699 117.362 35.2125L118.18 35.4341C118.444 35.5022 118.713 35.5946 118.986 35.711C119.258 35.8275 119.504 35.9809 119.723 36.1713C119.941 36.3616 120.105 36.5974 120.213 36.8787C120.321 37.1599 120.342 37.4966 120.277 37.8886C120.191 38.3829 119.991 38.8218 119.676 39.2054C119.361 39.5889 118.944 39.8914 118.427 40.113C117.91 40.3346 117.311 40.4454 116.629 40.4454C115.976 40.4454 115.426 40.3417 114.98 40.1343C114.537 39.927 114.211 39.6329 114.004 39.2522C113.797 38.8687 113.723 38.4142 113.782 37.8886H115.108C115.076 38.2039 115.133 38.4667 115.278 38.677C115.426 38.8843 115.633 39.0392 115.9 39.1414C116.167 39.2409 116.47 39.2906 116.808 39.2906C117.183 39.2906 117.525 39.2324 117.835 39.1159C118.145 38.9966 118.4 38.8318 118.602 38.6216C118.804 38.4085 118.927 38.1599 118.973 37.8758C119.018 37.6173 118.981 37.4057 118.862 37.2409C118.745 37.0761 118.569 36.9397 118.334 36.8318C118.101 36.7238 117.835 36.6287 117.537 36.5463L116.552 36.265C115.885 36.0747 115.379 35.7949 115.035 35.4255C114.691 35.0562 114.568 34.5676 114.664 33.9596C114.75 33.4568 114.96 33.0179 115.295 32.6429C115.63 32.2679 116.048 31.9767 116.548 31.7693C117.048 31.5591 117.591 31.4539 118.176 31.4539C118.767 31.4539 119.27 31.5591 119.684 31.7693C120.099 31.9795 120.406 32.2693 120.605 32.6386C120.804 33.0079 120.873 33.4341 120.814 33.917H119.544ZM123.265 36.4142L122.626 40.3005H121.352L122.8 31.5733H124.058L123.521 34.8204H123.602C123.809 34.4653 124.087 34.1855 124.437 33.9809C124.789 33.7735 125.221 33.6699 125.732 33.6699C126.181 33.6699 126.558 33.7622 126.862 33.9468C127.168 34.1315 127.384 34.4071 127.509 34.7735C127.637 35.1372 127.657 35.5917 127.569 36.1372L126.87 40.3005H125.596L126.261 36.2906C126.34 35.8105 126.278 35.4383 126.073 35.1741C125.869 34.9071 125.549 34.7735 125.114 34.7735C124.81 34.7735 124.529 34.8375 124.271 34.9653C124.015 35.0932 123.799 35.2807 123.623 35.5278C123.447 35.7721 123.327 36.0676 123.265 36.4142ZM128.566 40.3005L129.657 33.7551H130.931L129.84 40.3005H128.566ZM130.56 32.7324C130.339 32.7324 130.151 32.6585 129.998 32.5108C129.847 32.3602 129.778 32.1812 129.789 31.9738C129.8 31.7636 129.889 31.5846 130.053 31.4369C130.218 31.2863 130.41 31.211 130.629 31.211C130.85 31.211 131.036 31.2863 131.187 31.4369C131.337 31.5846 131.408 31.7636 131.4 31.9738C131.389 32.1812 131.3 32.3602 131.136 32.5108C130.974 32.6585 130.782 32.7324 130.56 32.7324ZM131.15 42.7551L132.658 33.7551H133.902L133.728 34.8162H133.834C133.931 34.6798 134.061 34.5221 134.226 34.3432C134.394 34.1642 134.614 34.0079 134.887 33.8744C135.16 33.738 135.499 33.6699 135.905 33.6699C136.434 33.6699 136.881 33.8034 137.248 34.0704C137.614 34.3375 137.875 34.7224 138.032 35.2253C138.188 35.7281 138.208 36.3332 138.091 37.0406C137.975 37.748 137.756 38.3545 137.435 38.8602C137.114 39.363 136.725 39.7508 136.267 40.0235C135.813 40.2934 135.32 40.4284 134.789 40.4284C134.391 40.4284 134.077 40.3616 133.847 40.2281C133.62 40.0946 133.451 39.9383 133.34 39.7593C133.229 39.5804 133.145 39.4213 133.088 39.2821H133.012L132.432 42.7551H131.15ZM133.361 37.0278C133.287 37.488 133.287 37.8914 133.361 38.238C133.435 38.5846 133.583 38.8559 133.804 39.052C134.029 39.2451 134.324 39.3417 134.691 39.3417C135.071 39.3417 135.405 39.2409 135.692 39.0392C135.979 38.8346 136.216 38.5576 136.404 38.2082C136.594 37.8588 136.726 37.4653 136.8 37.0278C136.871 36.596 136.87 36.2082 136.796 35.8645C136.725 35.5207 136.579 35.2494 136.357 35.0505C136.135 34.8517 135.833 34.7522 135.449 34.7522C135.077 34.7522 134.748 34.8474 134.461 35.0378C134.177 35.2281 133.941 35.4937 133.753 35.8346C133.566 36.1755 133.435 36.5733 133.361 37.0278ZM138.568 42.7551L140.076 33.7551H141.32L141.146 34.8162H141.252C141.349 34.6798 141.479 34.5221 141.644 34.3432C141.812 34.1642 142.032 34.0079 142.305 33.8744C142.577 33.738 142.917 33.6699 143.323 33.6699C143.852 33.6699 144.299 33.8034 144.666 34.0704C145.032 34.3375 145.293 34.7224 145.45 35.2253C145.606 35.7281 145.626 36.3332 145.509 37.0406C145.393 37.748 145.174 38.3545 144.853 38.8602C144.532 39.363 144.143 39.7508 143.685 40.0235C143.231 40.2934 142.738 40.4284 142.207 40.4284C141.809 40.4284 141.495 40.3616 141.265 40.2281C141.038 40.0946 140.869 39.9383 140.758 39.7593C140.647 39.5804 140.563 39.4213 140.506 39.2821H140.43L139.85 42.7551H138.568ZM140.779 37.0278C140.705 37.488 140.705 37.8914 140.779 38.238C140.853 38.5846 141.001 38.8559 141.222 39.052C141.447 39.2451 141.742 39.3417 142.109 39.3417C142.489 39.3417 142.823 39.2409 143.11 39.0392C143.397 38.8346 143.634 38.5576 143.822 38.2082C144.012 37.8588 144.144 37.4653 144.218 37.0278C144.289 36.596 144.288 36.2082 144.214 35.8645C144.143 35.5207 143.997 35.2494 143.775 35.0505C143.553 34.8517 143.251 34.7522 142.867 34.7522C142.495 34.7522 142.166 34.8474 141.879 35.0378C141.595 35.2281 141.359 35.4937 141.171 35.8346C140.984 36.1755 140.853 36.5733 140.779 37.0278ZM146.39 40.3005L147.481 33.7551H148.755L147.664 40.3005H146.39ZM148.385 32.7324C148.163 32.7324 147.976 32.6585 147.822 32.5108C147.672 32.3602 147.602 32.1812 147.613 31.9738C147.625 31.7636 147.713 31.5846 147.878 31.4369C148.042 31.2863 148.234 31.211 148.453 31.211C148.674 31.211 148.861 31.2863 149.011 31.4369C149.162 31.5846 149.233 31.7636 149.224 31.9738C149.213 32.1812 149.125 32.3602 148.96 32.5108C148.798 32.6585 148.606 32.7324 148.385 32.7324ZM151.296 36.4142L150.657 40.3005H149.383L150.474 33.7551H151.697L151.518 34.8204H151.599C151.806 34.471 152.089 34.1926 152.447 33.9852C152.808 33.775 153.234 33.6699 153.725 33.6699C154.168 33.6699 154.541 33.7636 154.842 33.9511C155.146 34.1358 155.36 34.4113 155.485 34.7778C155.613 35.1443 155.633 35.5974 155.545 36.1372L154.846 40.3005H153.572L154.241 36.2906C154.318 35.8162 154.255 35.4454 154.053 35.1784C153.854 34.9085 153.538 34.7735 153.103 34.7735C152.808 34.7735 152.533 34.8375 152.281 34.9653C152.031 35.0932 151.819 35.2807 151.646 35.5278C151.475 35.7721 151.359 36.0676 151.296 36.4142ZM158.886 42.8914C158.363 42.8914 157.925 42.8233 157.573 42.6869C157.224 42.5505 156.948 42.3701 156.747 42.1457C156.548 41.9213 156.41 41.6755 156.333 41.4085L157.509 40.9568C157.566 41.0818 157.646 41.2139 157.748 41.3531C157.85 41.4951 158.002 41.6159 158.204 41.7153C158.408 41.8147 158.688 41.8645 159.043 41.8645C159.526 41.8645 159.948 41.7466 160.309 41.5108C160.67 41.2778 160.893 40.9057 160.978 40.3943L161.178 39.1074H161.097C161.001 39.2466 160.867 39.4014 160.697 39.5718C160.526 39.7423 160.306 39.89 160.036 40.015C159.766 40.14 159.431 40.2025 159.031 40.2025C158.514 40.2025 158.068 40.0818 157.693 39.8403C157.32 39.596 157.053 39.2366 156.891 38.7622C156.729 38.2849 156.707 37.6983 156.823 37.0022C156.937 36.3062 157.153 35.7096 157.471 35.2125C157.792 34.7153 158.181 34.3346 158.639 34.0704C159.099 33.8034 159.592 33.6699 160.117 33.6699C160.524 33.6699 160.84 33.738 161.068 33.8744C161.298 34.0079 161.468 34.1642 161.579 34.3432C161.69 34.5221 161.771 34.6798 161.822 34.8162H161.916L162.09 33.7551H163.339L162.231 40.4454C162.14 41.0079 161.934 41.4696 161.613 41.8304C161.295 42.1912 160.899 42.4582 160.424 42.6315C159.952 42.8048 159.44 42.8914 158.886 42.8914ZM159.465 39.1457C159.829 39.1457 160.153 39.0605 160.437 38.89C160.724 38.7167 160.962 38.4696 161.153 38.1485C161.343 37.8247 161.475 37.4369 161.549 36.9852C161.623 36.5449 161.619 36.1571 161.536 35.8218C161.457 35.4866 161.302 35.2253 161.072 35.0378C160.845 34.8474 160.548 34.7522 160.181 34.7522C159.795 34.7522 159.46 34.8517 159.175 35.0505C158.891 35.2466 158.66 35.5136 158.481 35.8517C158.305 36.1897 158.181 36.5676 158.11 36.9852C158.042 37.4142 158.043 37.7906 158.114 38.1145C158.188 38.4383 158.336 38.6912 158.558 38.873C158.779 39.0548 159.082 39.1457 159.465 39.1457Z" fill="#FF7D44"/>
<path d="M91.4729 23.3005C89.1858 23.3005 87.234 22.8912 85.6175 22.0702C83.9987 21.2515 82.7638 20.1136 81.9128 18.6566C81.0595 17.1996 80.6339 15.5229 80.6339 13.6242C80.6339 11.7254 80.9577 9.9192 81.6052 8.26793C82.2527 6.61666 83.1916 5.17815 84.4196 3.94779C85.6499 2.71743 87.116 1.75303 88.8204 1.05228C90.5248 0.351532 92.4234 0 94.5139 0C96.7779 0 98.7205 0.409349 100.337 1.23036C101.956 2.05137 103.195 3.18691 104.058 4.64392C104.92 6.10092 105.353 7.77764 105.353 9.67637C105.353 11.5751 105.024 13.3813 104.365 15.0326C103.706 16.6839 102.763 18.1224 101.535 19.3527C100.307 20.5831 98.843 21.5475 97.1502 22.2482C95.4574 22.949 93.5635 23.3005 91.4729 23.3005ZM91.829 19.6118C93.2536 19.6118 94.537 19.3574 95.6794 18.8509C96.8218 18.3444 97.7977 17.6436 98.6071 16.7486C99.4165 15.8536 100.036 14.8175 100.466 13.6427C100.899 12.4678 101.114 11.2328 101.114 9.9377C101.114 8.64259 100.843 7.61806 100.305 6.66985C99.7657 5.72164 98.9772 4.9862 97.9434 4.47046C96.9074 3.95242 95.6355 3.69339 94.1254 3.69339C92.724 3.69339 91.4452 3.94779 90.2912 4.45428C89.1372 4.96076 88.1567 5.66151 87.3473 6.55653C86.5379 7.45154 85.9228 8.48764 85.5042 9.66249C85.0833 10.8373 84.8729 12.0723 84.8729 13.3674C84.8729 14.6626 85.1365 15.6871 85.6661 16.6353C86.1956 17.5858 86.9773 18.319 88.011 18.8347C89.047 19.3527 90.3189 19.6118 91.829 19.6118Z" fill="white"/>
<path d="M107.39 22.9768L111.92 0.326111H120.657C123.395 0.326111 125.516 0.929727 127.014 2.13927C128.513 3.34651 129.262 5.01859 129.262 7.15554C129.262 9.07508 128.825 10.731 127.951 12.1232C127.077 13.5155 125.833 14.5816 124.214 15.3263C122.595 16.071 120.676 16.4434 118.456 16.4434H111.079L113.31 14.4382L111.594 22.9814H107.388L107.39 22.9768ZM113.213 14.9193L111.724 12.8818H118.615C120.643 12.8818 122.218 12.4285 123.34 11.5219C124.461 10.6153 125.023 9.29016 125.023 7.54176C125.023 6.3114 124.607 5.39557 123.777 4.79195C122.947 4.18833 121.756 3.88537 120.202 3.88537H113.634L115.833 1.78312L113.213 14.9193Z" fill="white"/>
<path d="M134.505 22.9768L138.323 3.88537H130.817L131.529 0.326111H150.716L150.004 3.88537H142.497L138.712 22.9768H134.505Z" fill="white"/>
<path d="M149.389 22.9768L153.919 0.326111H158.126L153.595 22.9768H149.389Z" fill="white"/>
<path d="M159.709 22.9768L164.239 0.326111H167.669L174.269 16.9267L172.488 16.8943L185.399 0.326111H189.023L184.493 22.9768H180.513L183.781 6.4756L184.719 6.50798L173.783 20.3888H171.908L166.182 6.4756L166.991 6.57273L163.724 22.9791H159.711L159.709 22.9768Z" fill="white"/>
<path d="M200.961 23.3005C198.826 23.3005 197.046 22.8796 195.624 22.0378C194.201 21.196 193.202 20.0165 192.631 18.4947C192.06 16.973 191.979 15.1783 192.388 13.1084L194.944 0.326111H199.15L196.595 13.0437C196.401 14.1445 196.352 15.1089 196.449 15.9392C196.546 16.7695 196.805 17.461 197.226 18.0091C197.647 18.5595 198.207 18.9642 198.91 19.2232C199.61 19.4823 200.436 19.6118 201.384 19.6118C202.591 19.6118 203.632 19.3851 204.506 18.9318C205.38 18.4786 206.113 17.7616 206.705 16.781C207.297 15.8004 207.758 14.5423 208.081 13.0113L210.604 0.326111H214.746L212.158 13.3004C211.49 16.6238 210.218 19.1192 208.34 20.7913C206.462 22.4633 204.004 23.2982 200.963 23.2982L200.961 23.3005Z" fill="white"/>
<path d="M216.136 22.9768L220.666 0.326111H224.096L230.696 16.9267L228.915 16.8943L241.826 0.326111H245.45L240.92 22.9768H236.94L240.207 6.4756L241.146 6.50798L230.21 20.3888H228.335L222.609 6.4756L223.418 6.57273L220.15 22.9791H216.138L216.136 22.9768Z" fill="white"/>
</svg>
