<svg width="25" height="24" viewBox="0 0 25 24" fill="none" xmlns="http://www.w3.org/2000/svg">
<path d="M16.96 3C17.4728 3 17.8955 3.38604 17.9533 3.88338L17.96 4V5H19.96C21.0144 5 21.8782 5.81588 21.9545 6.85074L21.96 7V19C21.96 20.0544 21.1441 20.9182 20.1093 20.9945L19.96 21H5.96C4.90564 21 4.04183 20.1841 3.96548 19.1493L3.96 19V7C3.96 5.94564 4.77588 5.08183 5.81074 5.00549L5.96 5H7.96V4C7.96 3.44772 8.40772 3 8.96 3C9.47283 3 9.89551 3.38604 9.95327 3.88338L9.96 4V5H15.96V4C15.96 3.44772 16.4077 3 16.96 3ZM19.96 12H5.96V19H19.96V12ZM19.96 7H5.96V10H19.96V7Z" fill="#182F43" fill-opacity="0.5"/>
</svg>
